# xmcd
#
# Track frame offsets:
#	150
#	18430
#	48192
#	56782
#	85885
#	102362
#	121700
#	153427
#	175230
#	193675
#	210915
#	232090
#	253537
#	263982
#	275002
#
# Disc length: 3945 seconds
#
# Revision: 1
# Processed by: cddbd v1.4PL0 Copyright (c) Steve Scherf et al.
# Submitted via: audiograbber 1.81.03
#
DISCID=cc0f670f
DTITLE=Various Artist - Texas Blues (JSP) - CD 2
DYEAR=1997
DGENRE=Blues
TTITLE0=U.P. Wilson - Need The Need
TTITLE1=U.P. Wilson - Long Time
TTITLE2=Kenny Blue Ray - Blues For The Iceman
TTITLE3=Alanda Williams - Looking For My Baby
TTITLE4=Alanda Williams - Alone At Christmas
TTITLE5=Eddie Cleanhead Vinson - Meat's Too High
TTITLE6=Eddie Cleanhead Vinson - Race Track Blues
TTITLE7=Phillip Walker and Otis Grand - She Torture Me
TTITLE8=Jimmy Morello - What Happened To You
TTITLE9=Joe Coronado and The Texas Beat - Bet You Do It Real Good
TTITLE10=Bob Kirkpatrick - Little Girl
TTITLE11=Andrew Jr Boy Jones - Tribute To Freddie
TTITLE12=Johnny Guitar Watson - Tell Me Tell Me
TTITLE13=Little Willie Littlefield - Moon Is Rising
TTITLE14=U.P. Wilson - Made Up My Mind
EXTD=
EXTT0=
EXTT1=
EXTT2=
EXTT3=
EXTT4=
EXTT5=
EXTT6=
EXTT7=
EXTT8=
EXTT9=
EXTT10=
EXTT11=
EXTT12=
EXTT13=
EXTT14=
PLAYORDER=
